<svg width="24px" height="24px" viewBox="0 0 24 24" fill="none" xmlns="http://www.w3.org/2000/svg">
  <path fill-rule="evenodd" clip-rule="evenodd" d="M20.7204 8.10426L13.7204 3.20426C12.6874 2.48119 11.3126 2.48119 10.2796 3.20426L3.27961 8.10426C2.47763 8.66565 2 9.58301 2 10.562V19C2 20.6568 3.34315 22 5 22H19C20.6569 22 22 20.6568 22 19V10.562C22 9.58301 21.5224 8.66565 20.7204 8.10426ZM11.2627 4.60866C11.7054 4.29877 12.2946 4.29877 12.7373 4.60866L19.7373 9.50866C20.081 9.74925 20.2857 10.1424 20.2857 10.562V19C20.2857 19.7101 19.7101 20.2857 19 20.2857H5C4.28992 20.2857 3.71429 19.7101 3.71429 19V10.562C3.71429 10.1424 3.91899 9.74925 4.26269 9.50866L11.2627 4.60866Z" fill="currentColor"/>
  <path d="M17.5 16.6429C17.9734 16.6429 18.3571 17.0266 18.3571 17.5C18.3571 17.9734 17.9734 18.3571 17.5 18.3571H15.5C15.0266 18.3571 14.6428 17.9734 14.6428 17.5C14.6428 17.0266 15.0266 16.6429 15.5 16.6429H17.5Z" fill="currentColor"/>
</svg>
