<svg width="24" height="24" viewBox="0 0 14 14" xmlns="http://www.w3.org/2000/svg"><path d="M11.9965517,2.58275862 L7.41034483,0.217241379 C6.85517241,-0.0724137931 6.17931034,-0.0724137931 5.62413793,0.217241379 L1.03793103,2.60689655 C0.410344828,2.89655172 0,3.57241379 0,4.29655172 L0,9.67931034 C0,10.4034483 0.410344828,11.0551724 1.03793103,11.3931034 L5.64827586,13.7827586 C5.9137931,13.9275862 6.22758621,14 6.54137931,14 C6.85517241,14 7.14482759,13.9275862 7.43448276,13.7827586 L11.9965517,11.4172414 C12.6482759,11.0793103 13.0344828,10.4275862 13.0344828,9.70344828 L13.0344828,4.29655172 C13.0344828,3.57241379 12.6241379,2.89655172 11.9965517,2.58275862 Z M6.08275862,1.06206897 C6.22758621,0.989655172 6.37241379,0.94137931 6.51724138,0.94137931 C6.66206897,0.94137931 6.83103448,0.965517241 6.95172414,1.03793103 L11.537931,3.40344828 C11.6103448,3.42758621 11.6586207,3.47586207 11.7310345,3.52413793 L6.51724138,6.22758621 L1.30344828,3.57241379 C1.35172414,3.52413793 1.42413793,3.47586207 1.49655172,3.45172414 L6.08275862,1.06206897 Z M1.49655172,10.5241379 C1.15862069,10.3551724 0.965517241,10.0172414 0.965517241,9.65517241 L0.965517241,4.46551724 L2.89655172,5.45517241 L2.89655172,7.62758621 C2.89655172,7.82068966 2.99310345,7.98965517 3.16206897,8.06206897 L3.5,8.23103448 C3.52413793,8.25517241 3.57241379,8.25517241 3.59655172,8.25517241 C3.74137931,8.25517241 3.83793103,8.15862069 3.83793103,8.0137931 L3.83793103,5.93793103 L6.01034483,7.04827586 L6.01034483,12.8655172 L1.49655172,10.5241379 Z M11.537931,10.5241379 L7,12.8896552 L7,7.04827586 L12.0689655,4.46551724 L12.0689655,9.65517241 C12.0689655,10.0172414 11.8758621,10.3551724 11.537931,10.5241379 L11.537931,10.5241379 Z" fill="#2D6AFB" fill-rule="nonzero"/></svg>